<?xml version="1.0" encoding="UTF-8"?>
<svg data-name="Layer 1" viewBox="0 0 268.23 276" xmlns="http://www.w3.org/2000/svg">
<defs>
<style>.cls-1{fill:#0fed78;}</style>
</defs>
<path class="cls-1" d="M237.5,235c-6.07-11-15.27-16.38-27.91-16.32-28.86.13-57.73,0-86.6.09-5.54,0-9.74-1.92-12.41-6.9a50.42,50.42,0,0,0-2.9-4.71c-2.81-4.1-4.47-8.38-1.74-13.12,2.6-4.52,7-5.17,11.76-5.15,17.11.08,34.23,0,51.35.08,9.31.06,16-3.94,20.6-11.92,3.49-6.12,6.68-12.44,10.58-18.28,7.7-11.52-.64-22.47-12.66-22.09-25.48.8-51,.24-76.52.24v0c-26.18,0-52.36-.08-78.55,0-12.25.05-18.48,10.61-12.42,21.24q28.5,50,57.33,99.87c4.73,8.21,11.91,12.45,21.5,12.45q69,0,138,0c10.62,0,15.58-8.66,10.5-18C244.16,246.68,240.74,240.9,237.5,235Z"/>
<path class="cls-1" d="M235.57,54.74q-30.33,0-60.67-.05V44.9a20.93,20.93,0,1,0-19.18,0v9.82q-27.56.06-55.1.26c-5.2,0-11.42,1.7-15.36,4.85-10,8.06-14.41,20.27-20.05,31.44-.16.28-.07.67-.11,1C64.21,101.15,70,106.94,80,107c22.49.07,45,0,67.46,0v0q33.21,0,66.46,0c10.84,0,19-4.33,24.29-14,3.14-5.75,6.56-11.32,9.74-17C254.22,64.82,248.41,54.76,235.57,54.74Zm-91.76,37.9a11.78,11.78,0,1,1,11.76-11.78A11.77,11.77,0,0,1,143.81,92.64Zm43,0a11.78,11.78,0,1,1,11.77-11.78A11.77,11.77,0,0,1,186.81,92.64Z"/>
</svg>
