<svg width="269" height="276" viewBox="0 0 269 276" fill="none" xmlns="http://www.w3.org/2000/svg">
<path d="M219.765 229.634C213.695 218.634 204.495 213.254 191.855 213.314C162.995 213.444 134.125 213.314 105.255 213.404C99.7152 213.404 95.5152 211.484 92.8452 206.504C91.9654 204.882 90.9973 203.309 89.9452 201.794C87.1352 197.694 85.4752 193.414 88.2052 188.674C90.8052 184.154 95.2052 183.504 99.9652 183.524C117.075 183.604 134.195 183.524 151.315 183.604C160.625 183.664 167.315 179.664 171.915 171.684C175.405 165.564 178.595 159.244 182.495 153.404C190.195 141.884 181.855 130.934 169.835 131.314C144.355 132.114 118.835 131.554 93.3152 131.554C67.1352 131.554 40.9552 131.474 14.7652 131.554C2.5152 131.604 -3.7148 142.164 2.3452 152.794C21.3452 186.127 40.4552 219.417 59.6752 252.664C64.4052 260.874 71.5852 265.114 81.1752 265.114H219.175C229.795 265.114 234.755 256.454 229.675 247.114C226.425 241.314 223.005 235.534 219.765 229.634ZM217.835 49.3737C197.615 49.3737 177.392 49.357 157.165 49.3237V39.5337C161.336 37.3835 164.664 33.8938 166.614 29.6252C168.563 25.3565 169.022 20.5565 167.915 15.9959C166.809 11.4354 164.202 7.37896 160.513 4.47803C156.825 1.5771 152.268 0 147.575 0C142.882 0 138.326 1.5771 134.637 4.47803C130.948 7.37896 128.341 11.4354 127.235 15.9959C126.129 20.5565 126.587 25.3565 128.537 29.6252C130.486 33.8938 133.814 37.3835 137.985 39.5337V49.3537C119.612 49.3937 101.245 49.4803 82.8852 49.6137C77.6852 49.6137 71.4652 51.3137 67.5252 54.4637C57.5252 62.5237 53.1152 74.7337 47.4752 85.9037C47.3152 86.1837 47.4052 86.5737 47.3652 86.9037C46.4752 95.7837 52.2652 101.574 62.2652 101.634C84.7552 101.704 107.265 101.634 129.725 101.634H196.185C207.025 101.634 215.185 97.3037 220.475 87.6337C223.615 81.8837 227.035 76.3137 230.215 70.6337C236.485 59.4537 230.675 49.3937 217.835 49.3737ZM126.075 87.2737C123.744 87.2776 121.465 86.5901 119.525 85.2981C117.585 84.0061 116.072 82.1677 115.178 80.0156C114.283 77.8634 114.047 75.4942 114.499 73.2078C114.951 70.9214 116.072 68.8205 117.718 67.1711C119.365 65.5216 121.464 64.3977 123.75 63.9415C126.035 63.4854 128.405 63.7175 130.559 64.6085C132.712 65.4995 134.553 67.0093 135.849 68.947C137.144 70.8846 137.835 73.163 137.835 75.4937C137.837 77.0393 137.533 78.5701 136.943 79.9986C136.353 81.4271 135.487 82.7254 134.395 83.8193C133.303 84.9131 132.006 85.7812 130.579 86.3739C129.151 86.9666 127.621 87.2724 126.075 87.2737ZM169.075 87.2737C166.745 87.2757 164.466 86.5865 162.528 85.2933C160.589 84.0001 159.078 82.161 158.185 80.0086C157.292 77.8563 157.057 75.4874 157.51 73.2016C157.964 70.9159 159.085 68.816 160.732 67.1675C162.379 65.519 164.478 64.3961 166.763 63.9408C169.049 63.4854 171.418 63.7181 173.571 64.6094C175.724 65.5007 177.564 67.0106 178.859 68.948C180.154 70.8854 180.845 73.1634 180.845 75.4937C180.847 77.0402 180.543 78.5718 179.952 80.0009C179.361 81.4301 178.494 82.7288 177.401 83.8228C176.308 84.9168 175.01 85.7847 173.582 86.3768C172.153 86.9689 170.622 87.2737 169.075 87.2737Z" fill="#0FED78"/>
</svg>
