<svg id="Layer_1" data-name="Layer 1" xmlns="http://www.w3.org/2000/svg" viewBox="0 0 1041 190.07"><defs><style>.cls-1{fill:#090968;}.cls-2{fill:#0fed78;}</style></defs><rect class="cls-1" x="7.53" y="10.66" width="161.21" height="161.21" rx="26.24"/><path class="cls-2" d="M131.11,121.35a12.29,12.29,0,0,0-11.6-6.79c-12,.06-24,0-36,0a5.28,5.28,0,0,1-5.15-2.87c-.37-.67-.78-1.33-1.21-2-1.17-1.7-1.86-3.48-.73-5.45s2.91-2.15,4.89-2.14c7.12,0,14.23,0,21.35,0a9.11,9.11,0,0,0,8.56-4.95c1.45-2.54,2.78-5.17,4.4-7.6,3.2-4.79-.27-9.34-5.26-9.18-10.6.33-21.21.1-31.81.1h0c-10.88,0-21.76,0-32.65,0-5.09,0-7.68,4.42-5.16,8.83q11.85,20.8,23.83,41.51a9.71,9.71,0,0,0,8.94,5.18q28.67,0,57.34,0c4.41,0,6.47-3.6,4.36-7.48C133.87,126.19,132.45,123.79,131.11,121.35Z"/><path class="cls-2" d="M130.3,46.41l-25.21,0V42.32a8.71,8.71,0,1,0-8,0V46.4q-11.46,0-22.9.11a11.05,11.05,0,0,0-6.39,2c-4.17,3.35-6,8.42-8.33,13.06-.07.12,0,.28,0,.42-.37,3.69,2,6.1,6.2,6.12,9.35,0,18.69,0,28,0h0q13.8,0,27.62,0c4.51,0,7.91-1.8,10.1-5.82,1.3-2.39,2.72-4.71,4-7.08C138.06,50.6,135.64,46.42,130.3,46.41ZM92.17,62.16a4.9,4.9,0,1,1,4.88-4.89A4.89,4.89,0,0,1,92.17,62.16Zm17.87,0a4.9,4.9,0,1,1,4.89-4.89A4.89,4.89,0,0,1,110,62.16Z"/><path d="M224.24,50.72V74h41.05V97.82H224.24v24.59h47.84v23.78H200.32v-119h71.76V50.72Z"/><path d="M382,102c0,23.19-15.8,47.18-43.12,47.18-11.44,0-21-4.28-27.76-12.11v42.31H288.92V57.58h20.67l1,9.68c6.87-8.27,16.69-12.55,28.06-12.55C363.64,54.71,382,76,382,102Zm-22.74-.29a24.31,24.31,0,0,0-24.29-24.29c-12.48,0-23.85,9.23-23.85,24.36,0,14.47,10.33,24.66,23.85,24.66C349.76,126.47,359.21,114.14,359.21,101.74Z"/><path d="M391.18,131.35,404,116.5c4,5.76,11.82,10.64,21.93,10.64,5.32,0,12.18-1.33,12.18-6.35,0-5.24-7.53-7.16-18.23-11.82-10.19-4.43-24.44-11.59-24.44-27.39,0-16.69,15.95-27,32.41-27,13.73,0,26.21,7.16,30.27,16.24L442.42,83.94a18.76,18.76,0,0,0-15.36-7.23c-4.58,0-8.93,1.25-8.93,4.87,0,4.36,6.2,6.2,16.54,10.78,17.86,8,26.13,14.4,26.13,27.47,0,17.87-16.9,29.46-35.81,29.46C408.75,149.29,395.83,140.72,391.18,131.35Z"/><path d="M475.2,34a12.85,12.85,0,1,1,12.85,12.85A12.86,12.86,0,0,1,475.2,34Zm1.48,23.55h22.74v88.61H476.68Z"/><path d="M520.09,24.36h22.74V146.19H520.09Z"/><path d="M557.23,101.89a47.26,47.26,0,1,1,47.33,47.25A47.27,47.27,0,0,1,557.23,101.89Zm71.77,0a24.52,24.52,0,1,0-24.44,24.51A24.49,24.49,0,0,0,629,101.89Z"/><path d="M746.62,98.27v47.92H723.88V98.27c0-15.51-5.76-20.9-17.13-20.9S688.88,85,688.88,98.27v47.92H666.14V57.58H687.4l.89,8.79c6.42-6.94,15.28-11,26.06-11C731.33,55.37,746.62,63.71,746.62,98.27Z"/><path d="M850.87,124.85H775.49L766,146.19h-7.76L812.18,26h1.92l54,120.21h-7.76Zm-2.8-6.43L813.22,39.57l-34.93,78.85Z"/><path d="M884,27.16h7.17v119H884Z"/><path d="M912,86.75a60.73,60.73,0,1,1,121.46,0c0,33.3-27.4,60.54-60.84,60.54A60.78,60.78,0,0,1,912,86.75Zm114.22,0a53.53,53.53,0,1,0-53.6,53.31C1002.16,140.06,1026.23,116.06,1026.23,86.75Z"/></svg>